<?xml version="1.0" encoding="UTF-8"?>
<svg xmlns="http://www.w3.org/2000/svg" viewBox="0 0 880 1110">
  <defs>
    <style>
      .cls-1 {
        fill: #1ea2fa;
      }
    </style>
  </defs>
  <g id="Layer_4" data-name="Layer 4">
    <path class="cls-1" d="M450,469.57h280c5.52,0,10,4.48,10,10v60c0,24.1-2.84,47.54-8.21,70-31.44,131.55-149.52,229.43-290.57,230-165.67,.66-301.22-136.44-301.22-302.11V139.57c0-5.52,4.48-10,10-10h130c162.22,0,294.36,128.75,299.82,289.64,.19,5.66-4.34,10.36-10,10.36h-120.12c-5.31,0-9.67-4.16-9.98-9.46-2.27-39.18-18.61-75.7-46.59-103.68-27.72-27.72-63.83-44.02-102.6-46.52-5.72-.37-10.54,4.25-10.54,9.99v258.1c0,42.63,16.31,83.88,46.31,114.17,29.69,29.97,69.12,46.75,111.17,47.39,43.16,.66,84.99-16.23,115.54-46.73,8.58-8.56,16.07-17.93,22.4-27.93,4.21-6.65-.6-15.33-8.47-15.33h-116.95c-5.52,0-10-4.48-10-10v-120c0-5.52,4.48-10,10-10Z"/>
    <g>
      <path class="cls-1" d="M167.63,969.22l-7.86-14.22h-6.24v14.22h-8.52v-40.02h18.72c8.34,0,13.44,5.46,13.44,12.9s-4.44,10.86-8.76,11.88l9,15.24h-9.78Zm.84-27.12c0-3.36-2.58-5.4-6-5.4h-8.94v10.8h8.94c3.42,0,6-2.04,6-5.4Z"/>
      <path class="cls-1" d="M214.07,949.24c0-12.06,8.82-20.7,20.88-20.7s20.94,8.64,20.94,20.7-8.82,20.7-20.94,20.7-20.88-8.64-20.88-20.7Zm33.06,0c0-7.5-4.8-13.14-12.18-13.14s-12.12,5.64-12.12,13.14,4.74,13.14,12.12,13.14,12.18-5.7,12.18-13.14Z"/>
      <path class="cls-1" d="M292.37,949.24c0-12.06,8.82-20.7,20.88-20.7s20.94,8.64,20.94,20.7-8.82,20.7-20.94,20.7-20.88-8.64-20.88-20.7Zm33.06,0c0-7.5-4.8-13.14-12.18-13.14s-12.12,5.64-12.12,13.14,4.74,13.14,12.12,13.14,12.18-5.7,12.18-13.14Z"/>
      <path class="cls-1" d="M370.31,969.22v-6.9l18.9-25.62h-18.9v-7.5h30.06v6.84l-18.9,25.68h19.32v7.5h-30.48Z"/>
      <path class="cls-1" d="M485.51,949.24c0-12.66,9.6-20.7,21.3-20.7,8.34,0,13.56,4.2,16.56,8.94l-7.08,3.84c-1.8-2.82-5.22-5.22-9.48-5.22-7.26,0-12.54,5.58-12.54,13.14s5.28,13.14,12.54,13.14c3.54,0,6.9-1.56,8.52-3.06v-4.8h-10.56v-7.44h19.08v15.36c-4.08,4.56-9.78,7.56-17.04,7.56-11.7,0-21.3-8.16-21.3-20.76Z"/>
      <path class="cls-1" d="M561.11,949.24c0-12.06,8.82-20.7,20.88-20.7s20.94,8.64,20.94,20.7-8.82,20.7-20.94,20.7-20.88-8.64-20.88-20.7Zm33.06,0c0-7.5-4.8-13.14-12.18-13.14s-12.12,5.64-12.12,13.14,4.74,13.14,12.12,13.14,12.18-5.7,12.18-13.14Z"/>
      <path class="cls-1" d="M641.33,969.22v-40.02h28.32v7.5h-19.8v8.46h19.38v7.5h-19.38v16.56h-8.52Z"/>
      <path class="cls-1" d="M717.23,969.22v-32.52h-11.7v-7.5h31.92v7.5h-11.64v32.52h-8.58Z"/>
    </g>
  </g>
  <g id="Layer_7" data-name="Layer 7">
    <g>
      <g>
        <path class="cls-1" d="M552.3,1004.12l-1.52-2.64c-.14-.24-.06-.55,.18-.7l14.88-8.75c.25-.14,.56-.06,.71,.19l1.48,2.6c.14,.24,.06,.55-.18,.69l-14.84,8.78c-.25,.15-.56,.06-.71-.19Z"/>
        <path class="cls-1" d="M600.69,1025.7c-1.49-2.53-3.5-4.53-6.04-6-2.54-1.48-5.31-2.22-8.31-2.22h-26.1c-.52,0-.71-.69-.26-.95l15.76-9.39c.25-.15,.33-.48,.16-.72l-4.57-6.88c-.15-.23-.45-.3-.69-.16l-30.4,17.92c-.16,.09-.25,.26-.25,.44v9.29c0,.28,.23,.51,.51,.51h45.84c1.18,0,2.26,.29,3.25,.86,.99,.58,1.78,1.36,2.36,2.35,.59,.99,.88,2.07,.88,3.25s-.29,2.26-.88,3.26c-.59,1-1.38,1.79-2.36,2.36-.99,.58-2.07,.86-3.25,.86h-185.04c-.28,0-.51-.23-.51-.51v-21.98c0-.28-.23-.51-.51-.51h-16c-3,0-5.77,.74-8.31,2.22-2.54,1.48-4.55,3.48-6.04,6.02-1.49,2.54-2.23,5.3-2.23,8.28,0,1.2,.17,2.25,.51,3.15,.34,.9,.75,1.75,1.22,2.55,0,.01,.01,.03,.02,.04,.18,.34-.07,.75-.45,.75H220.52c-1.18,0-2.24-.29-3.21-.86-.96-.58-1.73-1.36-2.31-2.36-.58-1-.88-2.09-.9-3.26v-15.14c0-.33-.31-.58-.64-.5l-9.03,2.26c-.23,.06-.39,.26-.39,.5v12.89c0,1.18-.29,2.26-.88,3.26-.59,1-1.38,1.79-2.36,2.36-.99,.58-2.07,.86-3.25,.86h-35.95c-1.18,0-2.26-.29-3.25-.86s-1.78-1.36-2.36-2.36c-.59-1-.88-2.09-.88-3.26v-15.14c0-.33-.31-.58-.64-.5l-9.07,2.26c-.23,.06-.39,.26-.39,.5v12.89c0,2.98,.74,5.74,2.23,8.28,1.49,2.54,3.5,4.55,6.04,6.04,2.54,1.49,5.31,2.23,8.31,2.23h35.95c3,0,5.77-.75,8.3-2.23,1.1-.65,2.1-1.39,3-2.23,.2-.19,.52-.2,.72,0,1.29,1.31,2.83,2.35,4.59,3.13,2.01,.89,4.14,1.33,2,1.33h365.82c7.36,0,10.13-.75,12.67-2.23,2.54-1.49,4.55-3.49,6.04-6.02,1.49-2.53,2.23-5.29,2.23-8.29s-.75-5.77-2.23-8.3Zm-209.96,14.28c0,.28-.23,.51-.51,.51h-5.94c-1.18,0-2.26-.29-3.25-.86-.99-.58-1.78-1.36-2.36-2.36-.59-1-.88-2.09-.88-3.26s.29-2.26,.88-3.25c.59-.99,1.38-1.77,2.36-2.35,.99-.57,2.07-.86,3.25-.86h5.94c.28,0,.51,.23,.51,.51v11.92Z"/>
        <rect class="cls-1" x="170.3" y="1018.87" width="18.8" height="7.99" rx=".51" ry=".51"/>
        <rect class="cls-1" x="382.51" y="1001.27" width="8.67" height="8.18" rx=".51" ry=".51"/>
      </g>
      <g>
        <path class="cls-1" d="M637.05,1060.43l6.37-4.25c.14-.1,.23-.25,.23-.43v-34.6c0-.23,.16-.44,.39-.5l9.11-2.29c.32-.08,.64,.16,.64,.5v42.26c0,.17-.09,.33-.23,.43l-10.9,7.29c-.24,.16-.55,.09-.71-.14l-5.02-7.55c-.16-.24-.09-.55,.14-.71Zm8.27-58.11h7.64c.28,0,.51,.23,.51,.51v7.16c0,.28-.23,.51-.51,.51h-7.64c-.28,0-.51-.23-.51-.51v-7.16c0-.28,.23-.51,.51-.51Z"/>
        <path class="cls-1" d="M675.34,1060.47l13.58-8.98c.42-.28,.23-.94-.28-.94h-2.8c-2.35-.02-4.72-.76-7.11-2.21-2.39-1.45-4.36-3.44-5.91-5.97-1.55-2.53-2.33-5.29-2.33-8.29s.74-5.74,2.23-8.29c1.49-2.55,3.5-4.57,6.02-6.06,2.53-1.49,5.28-2.23,8.26-2.23h16.08c.28,0,.51,.23,.51,.51v35.54c0,.17-.09,.33-.23,.43l-22.42,14.91c-.24,.16-.55,.09-.71-.14l-5.02-7.55c-.16-.24-.09-.55,.14-.71Zm18.19-20.49v-11.96c0-.28-.23-.51-.51-.51h-6.02c-1.18,0-2.26,.29-3.25,.88-.99,.59-1.77,1.38-2.35,2.36-.58,.99-.86,2.06-.86,3.21s.29,2.26,.86,3.27c.58,1,1.36,1.8,2.35,2.38,.99,.59,2.07,.88,3.25,.88h6.02c.28,0,.51-.23,.51-.51Z"/>
        <path class="cls-1" d="M720.72,1060.43l6.37-4.25c.14-.1,.23-.25,.23-.43v-34.6c0-.23,.16-.44,.39-.5l9.11-2.29c.32-.08,.64,.16,.64,.5v42.26c0,.17-.09,.33-.23,.43l-10.9,7.29c-.24,.16-.55,.09-.71-.14l-5.02-7.55c-.16-.24-.09-.55,.14-.71Z"/>
      </g>
    </g>
  </g>
</svg>